<?xml version="1.0" encoding="utf-8"?>
<!-- Generator: Adobe Illustrator 26.3.1, SVG Export Plug-In . SVG Version: 6.00 Build 0)  -->
<svg version="1.1"
	 id="svg5" xmlns:inkscape="http://www.inkscape.org/namespaces/inkscape" xmlns:svg="http://www.w3.org/2000/svg" xmlns:sodipodi="http://sodipodi.sourceforge.net/DTD/sodipodi-0.dtd"
	 xmlns="http://www.w3.org/2000/svg" xmlns:xlink="http://www.w3.org/1999/xlink" x="0px" y="0px" viewBox="0 0 1160 269.6"
	 style="enable-background:new 0 0 1160 269.6;" xml:space="preserve">
<style type="text/css">
	.st0{fill:#42FFC6;}
	.st1{fill:#009F78;}
	.st2{enable-background:new    ;}
</style>
<sodipodi:namedview  bordercolor="#666666" borderopacity="1.0" fit-margin-bottom="0" fit-margin-left="0" fit-margin-right="0" fit-margin-top="0" id="namedview7" inkscape:current-layer="layer1" inkscape:cx="508.13088" inkscape:cy="-83.099151" inkscape:document-units="mm" inkscape:pagecheckerboard="0" inkscape:pageopacity="0.0" inkscape:pageshadow="2" inkscape:window-height="1013" inkscape:window-maximized="1" inkscape:window-width="1920" inkscape:window-x="-9" inkscape:window-y="-9" inkscape:zoom="0.36703143" pagecolor="#ffffff" showgrid="false">
	</sodipodi:namedview>
<g id="g33070_00000148642525654441055890000004708656603909083272_">
	<path class="st0" d="M355.1,59.7H162c-5.7,0-10.3-4.6-10.3-10.3V45c0-5.7,4.6-10.3,10.3-10.3h193.1c5.7,0,10.3,4.6,10.3,10.3v4.4
		C365.4,55.1,360.8,59.7,355.1,59.7z"/>
	<path class="st0" d="M318.6,107.2H162c-5.7,0-10.3-4.6-10.3-10.3v-4.4c0-5.7,4.6-10.3,10.3-10.3h156.6c5.7,0,10.3,4.6,10.3,10.3
		v4.4C328.9,102.5,324.3,107.2,318.6,107.2z"/>
	<path class="st0" d="M277.7,154.6H162c-5.7,0-10.3-4.6-10.3-10.3v-4.4c0-5.7,4.6-10.3,10.3-10.3h115.7c5.7,0,10.3,4.6,10.3,10.3
		v4.4C288,150,283.4,154.6,277.7,154.6z"/>
	<path class="st1" d="M240.2,174.5c-16.4,15.8-41.7,25.9-69.9,25.9c-11.5,0-22.9-1.8-33.7-5.2l-9.8-3.1l-8.4,5.9
		c-6.2,4.3-14.6,9.2-24.7,12.5c3.1-5.2,6.2-11.1,8.6-17.3l4.6-12.1l-8.9-9.4c-7.8-8.3-17.1-22-17.1-40.2c0-27.2,20.6-50.8,50.5-62
		V47.8c-41.6,12.8-71.2,45.4-71.2,83.7c0,20.5,8.6,39.2,22.8,54.4c-6.4,17-19.8,31.3-20,31.5c-2.8,3-3.6,7.4-2,11.2s5.4,6.2,9.5,6.2
		c26.5,0,47.3-11.1,59.9-19.9c12.4,3.9,25.9,6.2,40,6.2c41.7,0,78-18.8,96.7-46.6H240.2z"/>
</g>
<g class="st2">
	<path class="st1" d="M501.3,170.4c0,0-13.8,31.2-53.6,31.2s-61.2-31.4-61.2-64.4c0-33.3,21.6-64.7,61.6-64.7
		c36.9,0,50.9,27.1,50.9,27.1l-12.4,8.3c0,0-10.3-21.3-38.1-21.3c-25.5,0-44.2,18.8-44.2,50.4s18.6,50.4,44.7,50.4
		s36.7-17.9,39.9-25.2L501.3,170.4z"/>
	<path class="st1" d="M570,198.8V153c0-17-7.6-20.9-15.1-20.9c-9.2,0-21.6,6-21.6,23.8v42.9h-14.9V74.6h14.9v56.8
		c0,0,7.3-13.1,25-13.1c15.3,0,26.6,9.6,26.6,29.1v51.4L570,198.8L570,198.8z"/>
	<path class="st1" d="M606.3,93.7c0-6.4,5-11,11-11s11,4.6,11,11s-5,11-11,11S606.3,100.1,606.3,93.7z M609.7,198.8v-78.4h14.9v78.4
		H609.7z"/>
	<path class="st1" d="M650.1,198.8v-78.4h13.1l1.8,13.1c0,0,3.5-14.2,18.6-14.2c10.6,0,14.7,7.5,14.7,7.5l-7.8,12.4c0,0-3.5-5-11-5
		S665,139.5,665,158v40.8H650.1z"/>
	<path class="st1" d="M712.4,235.3V120.4h13.1l1.8,9.8c0,0,6.9-11.9,25.2-11.9c23.6,0,37.6,19.9,37.6,41.3c0,21.5-14,41.3-38.5,41.3
		c-18.4,0-24.3-12.8-24.3-12.8v47.2L712.4,235.3L712.4,235.3z M774.8,159.6c0-15.6-8.5-28.6-24.7-28.6c-16.1,0-23.2,12.9-23.2,28.6
		c0,15.6,7.1,28.6,23.2,28.6C766.3,188.1,774.8,175.2,774.8,159.6z"/>
	<path class="st1" d="M877,184.6c0,0-9.9,16.3-33,16.3c-21.6,0-38.3-14.2-38.3-40.8c0-27.8,18.1-41.9,38.8-41.9
		c20.4,0,35.7,13.7,35.7,44.9H821c0,15.4,8.3,25,23.4,25c16.1,0,22.7-11.2,22.7-11.2L877,184.6z M864.6,151
		c-1.4-13.7-9.8-21.1-21.1-21.1c-11.5,0-20.2,7.5-22,21.1H864.6z"/>
	<path class="st1" d="M899.7,198.8v-78.4h13.1l1.8,13.1c0,0,3.5-14.2,18.6-14.2c10.6,0,14.7,7.5,14.7,7.5l-7.8,12.4c0,0-3.5-5-11-5
		c-7.4,0-14.5,5.3-14.5,23.8v40.8H899.7z"/>
</g>
</svg>
