<?xml version="1.0" encoding="utf-8"?>
<!-- Generator: Adobe Illustrator 26.3.1, SVG Export Plug-In . SVG Version: 6.00 Build 0)  -->
<svg version="1.1" id="Ebene_1" xmlns="http://www.w3.org/2000/svg" xmlns:xlink="http://www.w3.org/1999/xlink" x="0px" y="0px"
	 viewBox="0 0 964 200.6" style="enable-background:new 0 0 964 200.6;" xml:space="preserve">
<style type="text/css">
	.st0{fill:#42FFC6;}
	.st1{fill:#009F78;}
	.st2{display:none;}
	.st3{display:inline;fill:#009F78;}
</style>
<g id="Ebene_2_00000129174526603907281050000002247331856050398620_">
	<g id="svg5">
		<g id="g33070">
			<path class="st0" d="M294.9,26H101.8c-5.7,0-10.3-4.6-10.3-10.3l0,0v-4.4C91.5,5.6,96.1,1,101.8,1l0,0h193.1
				c5.7,0,10.3,4.6,10.3,10.3l0,0v4.4C305.2,21.4,300.6,26,294.9,26C294.9,26.1,294.9,26.1,294.9,26z"/>
			<path class="st0" d="M258.4,73.5H101.8c-5.7,0-10.3-4.6-10.3-10.3l0,0v-4.4c0-5.7,4.6-10.3,10.3-10.3l0,0h156.6
				c5.7,0,10.3,4.6,10.3,10.3l0,0v4.4C268.7,68.9,264.1,73.5,258.4,73.5z"/>
			<path class="st0" d="M217.5,120.9H101.8c-5.7,0-10.3-4.6-10.3-10.3l0,0v-4.4c0-5.7,4.6-10.3,10.3-10.3l0,0h115.7
				c5.7,0,10.3,4.6,10.3,10.3l0,0v4.4C227.8,116.3,223.2,120.9,217.5,120.9C217.5,121,217.5,121,217.5,120.9z"/>
			<path class="st1" d="M180,139.8c-16.4,15.8-41.7,25.9-69.9,25.9c-11.4,0-22.8-1.8-33.7-5.2l-9.8-3.1l-8.4,5.9
				c-7.6,5.3-15.9,9.5-24.7,12.5c3.3-5.5,6.2-11.3,8.6-17.3l4.6-12.1l-8.9-9.4c-7.8-8.3-17.1-22-17.1-40.2c0-27.2,20.6-50.8,50.5-62
				V13.1C29.6,25.9,0,58.5,0,96.8c0,20.5,8.6,39.2,22.8,54.4c-6.4,17-19.8,31.3-20,31.5c-2.8,3-3.6,7.4-2,11.2s5.4,6.2,9.5,6.2
				c26.5,0,47.3-11.1,59.9-19.9c12.9,4.1,26.4,6.2,40,6.2c41.7,0,78-18.8,96.7-46.6L180,139.8z"/>
		</g>
		<g class="st2">
			<path class="st3" d="M441.1,135.7c0,0-13.8,31.2-53.6,31.2s-61.2-31.4-61.2-64.4c0-33.3,21.6-64.7,61.6-64.7
				c36.9,0,50.9,27.1,50.9,27.1l-12.4,8.3c0,0-10.3-21.3-38.1-21.3c-25.5,0-44.2,18.8-44.2,50.4s18.6,50.4,44.7,50.4
				s36.7-17.9,39.9-25.2L441.1,135.7z"/>
			<path class="st3" d="M509.8,164.1v-45.8c0-17-7.6-20.9-15.1-20.9c-9.2,0-21.6,6-21.6,23.8v42.9h-14.9V39.9h14.9v56.8
				c0,0,7.3-13.1,25-13.1c15.3,0,26.6,9.6,26.6,29.1v51.4H509.8z"/>
			<path class="st3" d="M546.1,59c0-6.1,4.9-11,11-11s11,4.9,11,11s-4.9,11-11,11c-6,0.1-10.9-4.7-11-10.7
				C546.1,59.2,546.1,59.1,546.1,59z M549.5,164.1V85.7h14.9v78.4H549.5z"/>
			<path class="st3" d="M589.9,164.1V85.7H603l1.8,13.1c0,0,3.5-14.2,18.6-14.2c10.6,0,14.7,7.5,14.7,7.5l-7.8,12.4
				c-2.7-3.3-6.8-5.1-11-5c-7.5,0-14.5,5.3-14.5,23.8v40.8H589.9z"/>
			<path class="st3" d="M652.2,200.6V85.7h13.1l1.8,9.8c0,0,6.9-11.9,25.2-11.9c23.6,0,37.6,19.9,37.6,41.3s-14,41.3-38.5,41.3
				c-18.4,0-24.3-12.8-24.3-12.8v47.2L652.2,200.6z M714.6,124.9c0-15.6-8.5-28.6-24.7-28.6s-23.2,12.9-23.2,28.6
				s7.1,28.6,23.2,28.6S714.6,140.5,714.6,124.9z"/>
			<path class="st3" d="M816.8,149.9c0,0-9.9,16.3-33,16.3c-21.6,0-38.3-14.2-38.3-40.8c0-27.8,18.1-41.9,38.8-41.9
				c20.4,0,35.7,13.7,35.7,44.9h-59.2c0,15.4,8.3,25,23.4,25c16.1,0,22.7-11.2,22.7-11.2L816.8,149.9z M804.4,116.3
				c-1.4-13.7-9.8-21.1-21.1-21.1c-11.5,0-20.2,7.5-22,21.1H804.4z"/>
			<path class="st3" d="M839.5,164.1V85.7h13.1l1.8,13.1c0,0,3.5-14.2,18.6-14.2c10.6,0,14.7,7.5,14.7,7.5l-7.8,12.4
				c-2.7-3.3-6.8-5.1-11-5c-7.4,0-14.5,5.3-14.5,23.8v40.8H839.5z"/>
		</g>
	</g>
</g>
<g>
	<g>
		<path class="st1" d="M384.8,40.7c8.8,0,16.5,1.6,22.9,4.7c6.4,3.1,11.4,7.5,15,13.3c3.6,5.7,5.4,12.6,5.4,20.7
			c0,8-1.8,14.9-5.4,20.7s-8.6,10.3-15,13.4s-14.1,4.7-22.9,4.7h-27.5v46h-20V40.7H384.8z M381.6,100.9c8.8,0,15.4-1.8,19.5-5.5
			c4.2-3.7,6.3-9,6.3-16c0-7.1-2.1-12.5-6.3-16.2c-4.2-3.7-10.7-5.5-19.5-5.5h-24.3v43.2H381.6z"/>
		<path class="st1" d="M443.9,164.1V70.6h17l1.9,16.8c2.5-6.1,6.2-10.7,11.1-13.9c4.9-3.2,11-4.8,18.2-4.8c1.9,0,3.7,0.2,5.6,0.5
			s3.4,0.8,4.7,1.4l-2.8,17.6c-1.4-0.5-2.9-0.9-4.6-1.2c-1.7-0.3-4-0.5-6.8-0.5c-3.9,0-7.7,1-11.4,3.1s-6.8,5.1-9.3,9.3
			c-2.4,4.1-3.6,9.3-3.6,15.7v49.5L443.9,164.1L443.9,164.1z"/>
		<path class="st1" d="M567.4,104.1c0-6.2-1.7-11.1-5.1-14.5c-3.4-3.4-8.1-5.1-14.1-5.1c-5.6,0-10.4,1.3-14.4,3.9s-6.9,6.9-8.8,12.7
			L508.2,94c2.4-7.6,7-13.7,13.9-18.3c6.9-4.6,15.9-6.9,26.8-6.9c7.5,0,14.1,1.2,19.8,3.6s10.2,6.1,13.6,10.9c3.3,4.9,5,11.1,5,18.7
			v41.7c0,4.6,2.3,6.9,6.9,6.9c2.2,0,4.4-0.3,6.5-0.9l-1.1,13.8c-2.9,1.4-6.5,2.1-10.8,2.1c-4,0-7.6-0.7-10.7-2.1
			c-3.2-1.4-5.7-3.6-7.5-6.5s-2.7-6.6-2.7-10.9v-1.3l4.1-0.2c-1.1,4.9-3.4,8.9-6.9,12.1c-3.5,3.2-7.5,5.5-12.1,7.1s-9.3,2.3-14,2.3
			c-5.9,0-11.1-0.9-15.8-2.8s-8.4-4.7-11-8.5c-2.7-3.8-4-8.5-4-14.1c0-7,2.3-12.7,6.8-17.2s11-7.5,19.3-9.2l36.3-7.1l-0.2,14
			l-26.4,5.4c-5.2,1-9.2,2.4-11.8,4.3s-3.9,4.6-3.9,8.2c0,3.5,1.3,6.3,4,8.3c2.7,2.1,6.3,3.1,10.7,3.1c3.1,0,6.1-0.4,9.1-1.1
			c2.9-0.7,5.6-2,7.9-3.6c2.4-1.7,4.2-3.9,5.5-6.5c1.3-2.7,2-5.9,2-9.6L567.4,104.1L567.4,104.1z"/>
		<path class="st1" d="M671.5,70.6v15.7h-70.1V70.6H671.5z M639.4,43.2v92.9c0,4.6,1.2,8,3.6,10.1c2.4,2.1,5.7,3.2,9.8,3.2
			c3.4,0,6.3-0.5,8.8-1.6s4.8-2.5,6.9-4.4L673,158c-2.9,2.5-6.4,4.5-10.6,5.9c-4.2,1.4-8.8,2.1-13.9,2.1c-5.4,0-10.3-0.9-14.8-2.6
			c-4.5-1.7-8-4.6-10.5-8.5s-3.8-9.1-3.9-15.4V48.8L639.4,43.2z"/>
		<path class="st1" d="M742.9,70.6v15.7h-70.1V70.6H742.9z M710.8,43.2v92.9c0,4.6,1.2,8,3.6,10.1c2.4,2.1,5.7,3.2,9.8,3.2
			c3.4,0,6.3-0.5,8.8-1.6s4.8-2.5,6.9-4.4l4.5,14.6c-2.9,2.5-6.4,4.5-10.6,5.9c-4.2,1.4-8.8,2.1-13.9,2.1c-5.4,0-10.3-0.9-14.8-2.6
			c-4.5-1.7-8-4.6-10.5-8.5s-3.8-9.1-3.9-15.4V48.8L710.8,43.2z"/>
		<path class="st1" d="M774.3,28.6v109.3c0,4.6,0.8,7.8,2.4,9.5c1.6,1.7,4.3,2.6,8,2.6c2.2,0,4.1-0.2,5.7-0.5
			c1.6-0.3,3.5-0.9,5.9-1.8l-2.2,15c-2.1,1-4.5,1.8-7.3,2.3c-2.7,0.6-5.5,0.8-8.2,0.8c-8.4,0-14.5-2.1-18.4-6.4
			c-3.9-4.3-5.9-10.9-5.9-19.9v-111L774.3,28.6L774.3,28.6z"/>
		<path class="st1" d="M846.5,166c-9.3,0-17.6-1.9-24.7-5.8c-7.1-3.9-12.6-9.4-16.5-16.7s-5.9-16-5.9-26.1s2-18.8,5.9-26.1
			s9.4-12.9,16.4-16.7c7-3.9,14.9-5.8,23.7-5.8c9.1,0,16.8,1.9,23.2,5.6s11.2,8.8,14.6,15.3c3.4,6.5,5,13.8,5,22.1
			c0,2.2-0.1,4.4-0.2,6.4c-0.1,2-0.3,3.7-0.6,5.2h-75.1V108h66.4l-9.9,3c0-8.5-2.1-15-6.4-19.5c-4.2-4.5-10-6.8-17.4-6.8
			c-5.4,0-10,1.2-14,3.7s-7,6.2-9.2,11.1c-2.1,4.9-3.2,10.9-3.2,18c0,7,1.1,12.9,3.4,17.8c2.2,4.9,5.4,8.5,9.5,11s9,3.7,14.6,3.7
			c6.2,0,11.3-1.2,15.1-3.6c3.9-2.4,6.9-5.7,9.2-9.9l15.9,7.5c-2.2,4.5-5.3,8.4-9.1,11.7s-8.3,5.8-13.6,7.6
			C858.4,165.1,852.7,166,846.5,166z"/>
		<path class="st1" d="M905.5,164.1V70.6h17l1.9,16.8c2.5-6.1,6.2-10.7,11.1-13.9c4.9-3.2,11-4.8,18.2-4.8c1.9,0,3.7,0.2,5.6,0.5
			c1.9,0.3,3.4,0.8,4.7,1.4l-2.8,17.6c-1.4-0.5-2.9-0.9-4.6-1.2c-1.7-0.3-4-0.5-6.8-0.5c-3.9,0-7.7,1-11.4,3.1s-6.8,5.1-9.3,9.3
			c-2.4,4.1-3.6,9.3-3.6,15.7v49.5L905.5,164.1L905.5,164.1z"/>
	</g>
</g>
</svg>
