<svg xmlns="http://www.w3.org/2000/svg" viewBox="0 0 887.72 200.6"><defs><style>.cls-1{fill:#83f2dc;}.cls-2{fill:#34b399;}.cls-3{isolation:isolate;}</style></defs><g id="Ebene_2" data-name="Ebene 2"><g id="svg5"><g id="g33070"><path class="cls-1" d="M294.92,25H101.82a10.29,10.29,0,0,1-10.3-10.3V10.3A10.29,10.29,0,0,1,101.82,0h193.1a10.29,10.29,0,0,1,10.3,10.3v4.4A10.29,10.29,0,0,1,294.92,25Z"/><path class="cls-1" d="M258.42,72.5H101.82a10.29,10.29,0,0,1-10.3-10.3V57.8a10.29,10.29,0,0,1,10.3-10.3h156.6a10.29,10.29,0,0,1,10.3,10.3v4.4A10.35,10.35,0,0,1,258.42,72.5Z"/><path class="cls-1" d="M217.52,119.9H101.82a10.29,10.29,0,0,1-10.3-10.3v-4.4a10.29,10.29,0,0,1,10.3-10.3h115.7a10.29,10.29,0,0,1,10.3,10.3v4.4A10.29,10.29,0,0,1,217.52,119.9Z"/><path class="cls-2" d="M180,139.8c-16.4,15.8-41.7,25.9-69.9,25.9a112.44,112.44,0,0,1-33.7-5.2l-9.8-3.1-8.4,5.9a96.13,96.13,0,0,1-24.7,12.5,116.21,116.21,0,0,0,8.6-17.3l4.6-12.1-8.9-9.4c-7.8-8.3-17.1-22-17.1-40.2,0-27.2,20.6-50.8,50.5-62V13.1C29.62,25.9,0,58.5,0,96.8c0,20.5,8.6,39.2,22.8,54.4-6.4,17-19.8,31.3-20,31.5a10.49,10.49,0,0,0-2,11.2,10.28,10.28,0,0,0,9.5,6.2c26.5,0,47.3-11.1,59.9-19.9a133.46,133.46,0,0,0,40,6.2c41.7,0,78-18.8,96.7-46.6Z"/></g><g class="cls-3"><path class="cls-2" d="M441.12,135.7s-13.8,31.2-53.6,31.2-61.2-31.4-61.2-64.4c0-33.3,21.6-64.7,61.6-64.7,36.9,0,50.9,27.1,50.9,27.1l-12.4,8.3s-10.3-21.3-38.1-21.3c-25.5,0-44.2,18.8-44.2,50.4s18.6,50.4,44.7,50.4,36.7-17.9,39.9-25.2Z"/><path class="cls-2" d="M509.82,164.1V118.3c0-17-7.6-20.9-15.1-20.9-9.2,0-21.6,6-21.6,23.8v42.9h-14.9V39.9h14.9V96.7s7.3-13.1,25-13.1c15.3,0,26.6,9.6,26.6,29.1v51.4Z"/><path class="cls-2" d="M546.12,59a11,11,0,1,1,11,11A10.84,10.84,0,0,1,546.12,59Zm3.4,105.1V85.7h14.9v78.4Z"/><path class="cls-2" d="M589.92,164.1V85.7H603l1.8,13.1s3.5-14.2,18.6-14.2c10.6,0,14.7,7.5,14.7,7.5l-7.8,12.4a13.69,13.69,0,0,0-11-5c-7.5,0-14.5,5.3-14.5,23.8v40.8Z"/><path class="cls-2" d="M652.22,200.6V85.7h13.1l1.8,9.8s6.9-11.9,25.2-11.9c23.6,0,37.6,19.9,37.6,41.3s-14,41.3-38.5,41.3c-18.4,0-24.3-12.8-24.3-12.8v47.2Zm62.4-75.7c0-15.6-8.5-28.6-24.7-28.6s-23.2,12.9-23.2,28.6,7.1,28.6,23.2,28.6S714.62,140.5,714.62,124.9Z"/><path class="cls-2" d="M816.82,149.9s-9.9,16.3-33,16.3c-21.6,0-38.3-14.2-38.3-40.8,0-27.8,18.1-41.9,38.8-41.9,20.4,0,35.7,13.7,35.7,44.9h-59.2c0,15.4,8.3,25,23.4,25,16.1,0,22.7-11.2,22.7-11.2Zm-12.4-33.6c-1.4-13.7-9.8-21.1-21.1-21.1-11.5,0-20.2,7.5-22,21.1Z"/><path class="cls-2" d="M839.52,164.1V85.7h13.1l1.8,13.1s3.5-14.2,18.6-14.2c10.6,0,14.7,7.5,14.7,7.5l-7.8,12.4a13.69,13.69,0,0,0-11-5c-7.4,0-14.5,5.3-14.5,23.8v40.8Z"/></g></g></g></svg>