<?xml version="1.0" encoding="utf-8"?>
<!-- Generator: Adobe Illustrator 26.3.1, SVG Export Plug-In . SVG Version: 6.00 Build 0)  -->
<svg version="1.1" id="Ebene_1" xmlns="http://www.w3.org/2000/svg" xmlns:xlink="http://www.w3.org/1999/xlink" x="0px" y="0px"
	 viewBox="0 0 305.4 200.1" style="enable-background:new 0 0 305.4 200.1;" xml:space="preserve">
<style type="text/css">
	.st0{fill:#42FFC6;}
	.st1{fill:#009F78;}
</style>
<g id="Ebene_2_00000009553458601881825090000013761140567810803089_">
	<g id="svg5">
		<g id="g33070">
			<path class="st0" d="M102,0h193c5.7,0,10.3,4.6,10.3,10.3v4.4c0,5.7-4.6,10.3-10.3,10.3H102c-5.7,0-10.3-4.6-10.3-10.3v-4.4
				C91.6,4.6,96.3,0,102,0z"/>
			<path class="st0" d="M102,47.4h156.6c5.7,0,10.3,4.6,10.3,10.3V62c0,5.7-4.6,10.3-10.3,10.3H102c-5.7,0-10.3-4.6-10.3-10.3v-4.3
				C91.6,52,96.3,47.4,102,47.4z"/>
			<path class="st0" d="M102,94.8h115.7c5.7,0,10.3,4.6,10.3,10.3v4.3c0,5.7-4.6,10.3-10.3,10.3H102c-5.7,0-10.3-4.6-10.3-10.3v-4.3
				C91.6,99.5,96.3,94.8,102,94.8z"/>
			<path class="st1" d="M180.1,139.8c-16.4,15.8-41.7,25.9-69.9,25.9c-11.4,0-22.8-1.8-33.7-5.2l-9.8-3.1l-8.4,5.9
				c-7.6,5.4-15.9,9.6-24.8,12.5c3.4-5.5,6.2-11.3,8.6-17.3l4.6-12.1l-8.9-9.4c-7.8-8.3-17.1-22-17.1-40.2c0-27.2,20.6-50.8,50.5-62
				V13.1C29.6,25.9,0,58.5,0,96.8c0,20.5,8.6,39.2,22.8,54.3c-6.4,17-19.8,31.3-20,31.5c-3.9,4.1-3.7,10.7,0.4,14.6
				c1.9,1.8,4.5,2.8,7.1,2.8c26.5,0,47.3-11.1,59.9-19.9c12.9,4.1,26.4,6.2,40,6.1c41.7,0,78-18.8,96.7-46.6L180.1,139.8z"/>
		</g>
	</g>
</g>
</svg>
