<svg xmlns="http://www.w3.org/2000/svg" viewBox="0 0 305.35 200.11"><defs><style>.cls-1{fill:#83f2dc;}.cls-2{fill:#34b399;}</style></defs><g id="Ebene_2" data-name="Ebene 2"><g id="svg5"><g id="g33070"><rect class="cls-1" x="91.63" width="213.72" height="25.01" rx="10.33"/><rect class="cls-1" x="91.63" y="47.42" width="177.26" height="25.01" rx="10.33"/><rect class="cls-1" x="91.63" y="94.84" width="136.38" height="25.01" rx="10.33"/><path class="cls-2" d="M180.11,139.76c-16.41,15.79-41.65,25.92-69.92,25.92a111.81,111.81,0,0,1-33.73-5.2l-9.77-3.1-8.39,5.94A92.79,92.79,0,0,1,33.55,175.8a108.46,108.46,0,0,0,8.57-17.3l4.56-12.1L37.81,137c-7.79-8.3-17.13-22-17.13-40.19,0-27.22,20.65-50.8,50.54-62V13.09C29.61,25.88,0,58.54,0,96.83c0,20.48,8.56,39.25,22.76,54.35-6.41,17-19.75,31.33-20,31.5a10.33,10.33,0,0,0,7.53,17.43c26.46,0,47.33-11.06,59.86-19.92a133.05,133.05,0,0,0,40,6.15c41.7,0,78-18.82,96.68-46.58Z"/></g></g></g></svg>