<?xml version="1.0" standalone="no"?>
<!DOCTYPE svg PUBLIC "-//W3C//DTD SVG 20010904//EN"
 "http://www.w3.org/TR/2001/REC-SVG-20010904/DTD/svg10.dtd">
<svg version="1.0" xmlns="http://www.w3.org/2000/svg"
 width="1220.000000pt" height="1220.000000pt" viewBox="0 0 1220.000000 1220.000000"
 preserveAspectRatio="xMidYMid meet">
<metadata>
Created by potrace 1.14, written by Peter Selinger 2001-2017
</metadata>
<g transform="translate(0.000000,1220.000000) scale(0.100000,-0.100000)"
fill="#000000" stroke="none">
<path d="M3970 10078 c-134 -56 -124 -50 -194 -117 -41 -40 -96 -139 -105
-190 -3 -20 -6 -110 -6 -201 l0 -165 39 -78 c62 -124 165 -203 297 -227 36 -7
1387 -9 3969 -8 l3915 3 77 37 c90 44 172 128 201 205 10 26 22 55 27 63 10
20 11 358 0 379 -4 9 -20 44 -35 78 -45 101 -124 170 -240 211 l-60 22 -3930
-1 c-2691 0 -3938 -4 -3955 -11z"/>
<path d="M2793 9549 c-23 -9 -43 -15 -46 -13 -2 3 -20 -2 -38 -10 -32 -14 -68
-28 -79 -31 -7 -1 -121 -44 -140 -52 -8 -3 -17 -7 -20 -8 -16 -5 -147 -60
-184 -77 -100 -44 -457 -228 -466 -239 -3 -4 -24 -17 -47 -29 -24 -12 -43 -25
-43 -29 0 -3 -15 -12 -32 -20 -18 -8 -35 -17 -38 -21 -3 -3 -28 -20 -56 -38
-28 -18 -62 -41 -74 -52 -13 -11 -27 -20 -31 -20 -4 0 -14 -6 -22 -14 -8 -8
-30 -25 -48 -38 -19 -13 -43 -31 -54 -40 -11 -9 -51 -42 -90 -73 -121 -98
-164 -137 -279 -250 -136 -136 -206 -212 -206 -227 0 -6 -3 -9 -6 -5 -9 9
-233 -279 -257 -330 -5 -13 -14 -23 -19 -23 -4 0 -8 -5 -8 -11 0 -6 -11 -25
-25 -43 -14 -18 -25 -38 -25 -44 0 -7 -3 -12 -7 -12 -5 0 -13 -10 -19 -23 -6
-12 -38 -73 -71 -134 -115 -212 -208 -449 -268 -680 -24 -95 -29 -114 -40
-173 -3 -14 -7 -35 -9 -47 -3 -11 -7 -43 -11 -70 -4 -26 -9 -59 -11 -73 -12
-66 -17 -173 -17 -375 0 -228 5 -321 29 -455 2 -14 7 -41 9 -60 6 -41 54 -248
62 -270 9 -22 9 -22 17 -63 5 -20 12 -40 17 -43 5 -3 9 -13 9 -23 0 -18 79
-233 101 -272 7 -13 14 -28 15 -34 4 -23 110 -227 172 -330 39 -66 152 -237
161 -245 3 -3 18 -23 33 -45 15 -22 39 -53 53 -70 13 -16 28 -35 32 -40 18
-24 120 -143 154 -179 l37 -39 -16 -46 c-8 -25 -18 -48 -21 -51 -3 -3 -7 -12
-9 -20 -7 -29 -175 -363 -192 -380 -3 -3 -16 -25 -30 -50 -13 -25 -28 -49 -32
-55 -21 -26 -78 -118 -78 -125 0 -5 -3 -10 -7 -12 -5 -1 -21 -23 -38 -48 -83
-125 -211 -289 -347 -444 -106 -120 -134 -182 -137 -301 -4 -199 118 -362 310
-411 74 -19 297 -15 534 10 33 4 67 9 75 11 8 2 39 7 69 10 30 4 63 9 75 11
12 2 37 7 56 10 19 3 51 9 70 14 19 5 46 11 60 14 91 16 414 111 455 133 17
10 32 16 35 16 12 -3 90 22 90 29 0 4 7 8 15 8 40 0 434 188 590 281 28 17 58
33 68 36 9 3 17 9 17 14 0 5 7 9 15 9 8 0 15 5 15 10 0 6 5 10 11 10 5 0 64
36 131 79 90 60 124 78 137 71 9 -5 43 -16 76 -25 33 -10 71 -21 85 -25 20 -7
77 -21 143 -36 4 -1 8 -2 10 -4 1 -1 9 -3 17 -5 8 -1 51 -11 95 -20 44 -10 89
-19 100 -20 11 -1 27 -5 35 -8 13 -5 130 -24 255 -42 22 -3 51 -8 65 -10 14
-3 52 -7 85 -10 33 -3 71 -8 85 -10 174 -27 783 -27 1040 0 19 2 61 6 92 9 32
3 70 8 85 10 16 2 48 7 73 11 25 4 59 9 75 11 17 3 44 7 60 10 30 4 56 9 105
19 42 9 74 15 105 20 17 3 57 12 90 20 75 19 94 24 122 29 84 17 464 140 583
189 55 22 75 30 80 32 18 6 74 30 125 55 33 15 71 31 85 35 14 4 27 10 30 14
8 10 114 61 128 61 6 0 12 5 12 10 0 6 4 10 9 10 8 0 132 67 201 109 19 11 42
24 50 28 59 28 455 308 506 357 6 6 35 31 64 56 29 25 69 60 88 78 20 17 40
32 44 32 4 0 8 7 8 15 0 8 4 15 8 15 7 0 152 143 204 201 12 15 37 42 53 60
17 19 48 56 69 84 22 27 45 56 52 65 33 40 82 108 99 138 11 17 23 32 27 32 4
0 8 5 8 10 0 7 -183 10 -528 10 -582 0 -533 5 -610 -67 -64 -61 -188 -161
-277 -224 -110 -78 -185 -129 -192 -129 -3 0 -14 -6 -22 -14 -9 -7 -36 -24
-61 -37 -25 -13 -48 -28 -51 -32 -3 -5 -12 -9 -20 -10 -8 -2 -30 -14 -49 -27
-19 -14 -36 -24 -37 -23 -2 1 -58 -25 -125 -58 -68 -33 -131 -62 -141 -64 -10
-2 -37 -13 -60 -24 -128 -59 -482 -174 -635 -206 -9 -2 -37 -8 -62 -14 -25 -5
-60 -13 -79 -16 -19 -3 -37 -7 -40 -9 -3 -2 -28 -7 -56 -10 -57 -8 -108 -16
-138 -22 -38 -7 -177 -24 -237 -29 -314 -27 -701 -22 -962 10 -140 18 -346 53
-433 74 -22 5 -51 12 -65 15 -14 3 -52 12 -84 21 -33 8 -67 17 -75 18 -9 2
-38 10 -66 19 -72 23 -199 62 -205 64 -3 0 -12 3 -20 7 -13 5 -246 77 -261 81
-5 1 -166 -109 -196 -134 -7 -6 -16 -10 -19 -9 -4 0 -10 -3 -13 -8 -3 -5 -28
-25 -56 -44 -27 -18 -52 -37 -55 -40 -3 -3 -20 -14 -37 -24 -18 -11 -33 -23
-33 -27 0 -4 -7 -8 -15 -8 -8 0 -15 -4 -15 -9 0 -5 -10 -13 -22 -17 -13 -4
-25 -10 -28 -14 -7 -10 -248 -148 -325 -185 -33 -17 -63 -33 -66 -38 -3 -4
-16 -9 -27 -10 -12 -1 -22 -5 -22 -9 0 -4 -9 -8 -20 -8 -11 0 -20 -4 -20 -10
0 -5 -5 -10 -11 -10 -5 0 -29 -8 -52 -19 -57 -25 -80 -34 -92 -36 -5 0 -23 -7
-40 -14 -87 -37 -155 -58 -155 -47 0 7 4 16 9 21 14 15 103 174 125 223 10 23
23 42 28 42 4 0 7 3 6 8 -2 4 13 39 32 77 19 39 34 72 35 75 0 3 6 15 13 27 7
13 10 23 7 23 -4 0 1 7 9 16 9 8 16 23 16 32 0 10 7 28 16 40 8 12 13 22 9 22
-3 0 1 13 9 29 9 16 22 46 29 67 8 22 31 84 52 139 20 55 44 118 51 140 8 22
18 49 23 60 5 11 18 43 28 70 20 50 20 50 -1 71 -18 18 -206 216 -326 344 -55
58 -177 203 -216 255 -16 22 -32 42 -36 43 -5 2 -8 8 -8 13 0 6 -18 34 -40 64
-22 30 -38 55 -35 55 3 0 -3 10 -15 22 -11 12 -20 27 -20 34 0 7 -7 19 -15 27
-32 33 -199 399 -197 434 0 4 -4 14 -10 21 -6 6 -7 12 -3 12 4 0 3 6 -2 13 -6
6 -14 30 -18 52 -5 22 -9 45 -11 50 -28 101 -52 232 -60 335 -6 81 -6 297 0
370 7 83 35 250 46 270 5 9 7 20 4 23 -5 4 26 125 43 167 3 8 7 21 9 29 3 14
31 89 66 176 54 133 212 412 273 481 6 7 19 24 30 40 50 69 187 226 276 313
108 107 121 119 234 209 44 35 89 72 100 81 43 35 251 171 263 171 7 0 12 4
12 9 0 5 12 16 28 23 15 8 52 28 82 45 59 33 252 130 310 156 97 43 129 57
133 57 3 0 22 8 43 17 22 9 44 17 49 17 11 1 16 842 6 862 -4 8 -19 6 -48 -7z"/>
<path d="M4340 8203 c0 -4 -75 -9 -168 -9 -175 -2 -186 -3 -244 -27 -20 -9
-39 -13 -42 -9 -3 3 -6 0 -6 -6 0 -7 -6 -12 -14 -12 -38 0 -166 -155 -182
-219 -2 -9 -8 -35 -14 -58 -9 -40 -8 -321 2 -353 38 -121 117 -217 221 -268
76 -37 134 -46 302 -43 72 0 144 1 160 0 17 -1 89 -1 160 0 72 1 144 1 160 0
17 -1 89 -1 160 0 72 1 144 1 160 0 96 -3 5384 1 5405 4 60 10 137 46 191 88
75 60 128 153 145 254 11 67 10 257 -2 317 -22 112 -96 219 -189 273 -84 50
-121 57 -291 59 -88 2 -166 6 -172 10 -7 4 -12 3 -12 -1 0 -7 -435 -10 -450
-3 -3 1 -9 1 -15 0 -29 -9 -291 -4 -297 5 -5 6 -8 6 -8 0 0 -11 -145 -14 -156
-3 -3 4 -14 4 -23 -1 -14 -7 -301 -8 -326 -1 -5 1 -12 1 -15 0 -14 -7 -288 -5
-302 2 -9 4 -19 5 -21 1 -6 -10 -288 -10 -304 0 -6 4 -14 4 -16 0 -5 -7 -277
-10 -302 -3 -5 1 -12 1 -15 0 -18 -8 -426 -4 -432 5 -5 7 -8 7 -8 0 0 -12
-159 -13 -178 -1 -7 4 -12 3 -12 -1 0 -7 -435 -10 -450 -3 -3 1 -9 1 -15 0
-29 -9 -291 -4 -297 5 -5 7 -8 7 -8 0 0 -12 -159 -13 -178 -1 -7 4 -12 3 -12
-1 0 -7 -435 -10 -450 -3 -3 1 -9 1 -15 0 -29 -9 -291 -4 -297 5 -5 6 -8 6 -8
0 0 -11 -145 -14 -156 -3 -3 4 -14 4 -23 -1 -13 -6 -446 -7 -461 -1 -3 1 -9 1
-15 0 -29 -9 -291 -4 -297 5 -5 6 -8 6 -8 0 0 -12 -129 -13 -147 -2 -7 5 -13
5 -13 0z"/>
<path d="M4036 6303 c-1 -1 -15 -4 -31 -7 -17 -3 -43 -8 -60 -12 -16 -3 -37
-11 -45 -18 -8 -6 -28 -18 -44 -26 -68 -35 -139 -124 -171 -217 -20 -59 -23
-87 -23 -213 0 -166 13 -229 61 -308 29 -48 87 -112 102 -112 3 0 15 -8 25
-18 11 -10 50 -29 87 -42 l68 -24 2370 0 c1304 0 2384 3 2400 6 152 30 274
143 320 294 20 66 20 314 0 389 -41 154 -165 270 -320 300 -33 7 -4732 14
-4739 8z"/>
</g>
</svg>
