<?xml version="1.0" standalone="no"?>
<!DOCTYPE svg PUBLIC "-//W3C//DTD SVG 20010904//EN"
 "http://www.w3.org/TR/2001/REC-SVG-20010904/DTD/svg10.dtd">
<svg version="1.0" xmlns="http://www.w3.org/2000/svg"
 width="1220.000000pt" height="1220.000000pt" viewBox="0 0 1220.000000 1220.000000"
 preserveAspectRatio="xMidYMid meet">
<metadata>
Created by potrace 1.14, written by Peter Selinger 2001-2017
</metadata>
<g transform="translate(0.000000,1220.000000) scale(0.100000,-0.100000)"
fill="#000000" stroke="none">
<path d="M3982 10078 c-7 -7 -12 -9 -12 -6 0 11 -106 -36 -139 -61 -44 -34
-92 -81 -83 -81 4 0 3 -4 -3 -8 -19 -14 -59 -96 -70 -147 -11 -47 -13 -328 -2
-365 38 -133 131 -240 250 -287 l72 -28 3925 0 c2159 0 3939 3 3957 7 144 29
284 175 311 324 10 59 9 294 -2 344 -23 103 -106 215 -195 264 -112 60 213 56
-4072 56 -3035 0 -3928 -3 -3937 -12z"/>
<path d="M2800 9552 c-19 -8 -42 -16 -50 -18 -32 -7 -204 -67 -260 -91 -8 -3
-17 -7 -20 -8 -3 -1 -18 -7 -33 -13 -16 -7 -30 -12 -33 -12 -17 0 -433 -205
-519 -255 -33 -20 -69 -40 -80 -46 -11 -5 -40 -23 -65 -39 -25 -16 -52 -33
-60 -37 -8 -3 -17 -9 -20 -13 -3 -3 -33 -23 -67 -45 -35 -22 -63 -43 -63 -47
0 -5 -7 -8 -15 -8 -8 0 -15 -4 -15 -9 0 -5 -8 -12 -18 -15 -10 -4 -27 -14 -38
-24 -10 -10 -35 -28 -54 -42 -19 -13 -37 -27 -40 -30 -3 -3 -27 -23 -55 -45
-27 -22 -57 -46 -66 -55 -9 -8 -37 -33 -64 -55 -47 -39 -294 -282 -326 -321
-8 -10 -34 -41 -58 -69 -75 -87 -81 -95 -157 -198 -41 -56 -78 -107 -82 -112
-20 -28 -102 -155 -102 -159 0 -3 -14 -29 -31 -58 -149 -250 -295 -628 -345
-893 -2 -11 -6 -31 -10 -45 -3 -14 -7 -34 -8 -45 -4 -29 -17 -116 -22 -145
-18 -101 -25 -530 -11 -655 9 -81 17 -149 22 -171 3 -12 7 -39 10 -60 3 -21 8
-50 12 -64 3 -14 7 -31 9 -39 1 -7 8 -35 14 -61 6 -26 13 -54 14 -61 3 -18 45
-159 53 -179 3 -8 7 -19 9 -25 7 -24 47 -131 63 -169 10 -22 33 -75 51 -116
66 -150 197 -379 306 -535 78 -111 236 -306 306 -376 27 -27 27 -29 13 -71 -8
-24 -19 -52 -24 -63 -63 -135 -135 -281 -140 -285 -3 -3 -17 -29 -31 -57 -14
-29 -28 -53 -32 -53 -5 0 -8 -4 -8 -10 0 -5 -16 -36 -36 -67 -73 -116 -127
-198 -134 -203 -4 -3 -13 -16 -20 -29 -7 -14 -17 -30 -21 -35 -5 -6 -23 -29
-39 -51 -16 -22 -33 -44 -38 -50 -4 -5 -21 -28 -37 -50 -17 -22 -34 -45 -40
-52 -5 -7 -15 -18 -21 -25 -33 -41 -130 -155 -141 -166 -39 -40 -83 -104 -104
-152 -20 -46 -23 -71 -23 -155 0 -91 3 -106 33 -170 37 -80 116 -164 183 -194
97 -42 110 -45 247 -44 114 1 286 9 286 13 0 0 23 3 50 5 57 5 126 14 170 21
17 3 44 7 60 9 57 7 320 65 390 86 154 46 171 51 185 56 8 4 17 7 20 8 100 30
235 81 355 133 76 34 397 195 450 227 22 13 47 28 55 32 48 26 115 68 118 75
2 4 10 8 18 8 8 0 14 5 14 10 0 6 5 10 11 10 5 0 40 21 77 47 37 25 71 46 77
45 19 -1 60 -12 130 -33 70 -21 378 -96 425 -104 14 -2 50 -8 80 -14 78 -15
134 -24 250 -40 68 -10 104 -14 225 -26 187 -18 576 -24 785 -11 309 19 443
36 788 101 13 2 31 6 40 9 9 3 31 8 47 11 103 18 306 73 511 140 56 19 317
118 379 145 72 31 359 174 430 214 33 19 78 44 99 56 21 11 73 43 114 71 41
27 79 49 83 49 5 0 9 5 9 10 0 6 5 10 11 10 6 0 25 11 43 25 36 29 35 28 101
75 28 19 55 39 62 45 7 5 18 15 25 20 243 186 512 456 704 705 50 66 114 156
114 162 0 2 -114 2 -252 1 -139 0 -378 -2 -531 -3 l-277 -1 -43 -37 c-47 -41
-113 -100 -133 -119 -7 -7 -17 -13 -22 -13 -6 0 -12 -4 -14 -9 -1 -5 -34 -32
-73 -61 -38 -29 -72 -55 -75 -59 -6 -7 -40 -29 -60 -38 -8 -4 -17 -10 -20 -14
-8 -12 -192 -125 -276 -170 -131 -70 -345 -174 -352 -170 -1 1 -15 -5 -31 -13
-16 -9 -31 -12 -35 -9 -3 4 -6 1 -6 -5 0 -7 -8 -12 -18 -12 -10 0 -23 -5 -28
-10 -6 -6 -19 -13 -30 -15 -10 -2 -73 -23 -139 -46 -110 -38 -191 -63 -239
-74 -10 -2 -33 -9 -50 -14 -17 -6 -42 -13 -56 -15 -14 -3 -43 -10 -65 -16 -22
-5 -56 -13 -75 -16 -19 -3 -51 -9 -70 -14 -34 -9 -116 -23 -210 -36 -25 -3
-56 -8 -70 -10 -50 -8 -165 -20 -300 -30 -91 -8 -522 -12 -533 -6 -5 2 -39 6
-75 7 -73 4 -167 12 -222 20 -19 2 -53 7 -75 10 -78 9 -294 48 -360 64 -22 5
-51 12 -65 15 -56 11 -225 57 -322 87 -57 18 -107 34 -113 35 -5 2 -71 22
-145 46 -77 25 -140 41 -145 36 -26 -22 -197 -138 -205 -138 -4 0 -10 -4 -12
-8 -1 -5 -48 -40 -103 -78 -55 -37 -102 -71 -105 -75 -3 -3 -15 -9 -27 -13
-13 -4 -23 -11 -23 -15 0 -5 -13 -14 -30 -21 -16 -7 -30 -16 -30 -21 0 -5 -4
-9 -10 -9 -5 0 -33 -14 -62 -31 -86 -51 -319 -169 -334 -169 -8 0 -14 -4 -14
-10 0 -5 -3 -9 -7 -8 -5 1 -24 -5 -43 -14 -48 -22 -162 -66 -243 -94 l-68 -23
19 32 c78 131 205 377 261 507 36 82 99 243 103 260 2 8 5 17 8 20 5 5 32 77
67 175 14 42 20 56 47 118 27 63 37 47 -169 262 -131 137 -260 278 -264 288
-2 6 -14 21 -26 33 -65 65 -228 305 -285 419 -19 39 -38 72 -41 75 -7 6 -49
98 -49 106 0 4 -9 25 -19 48 -35 74 -88 234 -83 249 1 4 -2 7 -6 7 -4 0 -8 8
-8 18 -1 9 -4 28 -7 42 -42 167 -56 296 -57 495 0 171 5 227 35 400 9 51 57
239 63 250 4 6 7 12 8 15 4 23 20 71 32 100 9 19 17 41 18 48 3 16 124 261
156 317 27 47 118 185 133 201 6 7 19 24 30 40 121 169 332 382 535 543 93 74
91 73 145 110 28 19 53 40 57 45 4 6 8 7 8 2 0 -5 10 0 23 11 19 17 42 32 118
78 111 66 318 174 419 218 19 9 60 26 90 40 30 13 72 30 92 36 21 7 41 18 45
24 8 13 11 844 3 856 -3 4 -21 1 -40 -7z"/>
<path d="M4227 8204 c-3 -4 -59 -7 -124 -9 -159 -4 -225 -29 -317 -119 -49
-47 -91 -113 -102 -155 -2 -9 -8 -33 -13 -53 -15 -62 -7 -326 12 -381 48 -138
162 -241 302 -272 49 -10 636 -12 3245 -11 2880 2 3189 4 3226 18 89 35 184
100 184 128 0 5 4 10 10 10 5 0 17 15 26 33 9 17 22 35 28 39 6 4 8 8 4 8 -4
0 -1 15 7 34 8 18 17 46 20 62 7 36 7 291 0 322 -3 12 -7 32 -10 44 -20 91
-114 201 -213 250 -74 36 -75 37 -158 41 -33 2 -66 7 -72 11 -7 4 -12 4 -12
-1 0 -10 -121 -10 -136 0 -6 3 -14 4 -18 0 -9 -10 -66 -9 -66 1 0 5 -6 4 -12
-1 -15 -10 -238 -10 -256 1 -7 4 -12 4 -12 -1 0 -10 -102 -9 -118 1 -7 4 -12
4 -12 -1 0 -4 -16 -8 -35 -8 -19 0 -35 4 -35 9 0 5 -6 4 -12 -1 -7 -5 -65 -7
-128 -6 -63 2 -119 3 -125 3 -5 0 -36 -1 -68 -3 -32 -1 -61 1 -63 5 -3 5 -10
5 -16 2 -17 -11 -68 -10 -68 0 0 5 -6 4 -12 -1 -7 -5 -71 -7 -143 -6 -71 2
-134 3 -140 3 -5 0 -75 0 -155 0 -80 0 -152 0 -160 0 -8 0 -80 0 -160 0 -80 0
-152 0 -160 0 -8 0 -80 0 -160 0 -80 0 -152 0 -160 0 -8 0 -54 -1 -103 -3 -48
-1 -87 2 -87 7 0 5 -6 4 -12 -1 -7 -5 -65 -7 -128 -6 -63 2 -119 3 -125 3 -5
0 -36 -1 -68 -3 -32 -1 -61 1 -63 5 -3 5 -10 5 -16 2 -17 -11 -68 -10 -68 0 0
5 -6 4 -12 -1 -15 -10 -238 -10 -256 1 -7 4 -12 4 -12 -1 0 -10 -102 -9 -118
1 -7 4 -12 4 -12 -1 0 -4 -16 -8 -35 -8 -19 0 -35 4 -35 9 0 5 -6 4 -12 -1 -7
-5 -65 -7 -128 -6 -63 2 -119 3 -125 3 -5 0 -36 -1 -68 -3 -32 -1 -61 1 -63 5
-3 5 -10 5 -16 2 -17 -11 -68 -10 -68 0 0 5 -6 4 -12 -1 -15 -10 -238 -10
-256 1 -7 4 -12 4 -12 -1 0 -10 -102 -9 -118 1 -7 4 -12 4 -12 -1 0 -4 -16 -8
-35 -8 -19 0 -35 4 -35 9 0 5 -6 4 -12 -1 -7 -5 -65 -7 -128 -6 -63 2 -119 3
-125 3 -5 0 -36 -1 -68 -3 -32 -1 -61 1 -63 5 -3 5 -10 5 -16 2 -17 -11 -68
-10 -68 0 0 5 -6 4 -12 -1 -15 -10 -238 -10 -256 1 -7 4 -12 4 -12 -1 0 -10
-102 -9 -118 1 -7 4 -12 4 -12 -1 0 -4 -16 -8 -35 -8 -19 0 -35 4 -35 9 0 5
-6 4 -12 -1 -10 -7 -106 -8 -253 -3 -5 0 -29 -1 -52 -3 -24 -2 -43 1 -43 6 0
4 -5 5 -12 1 -16 -10 -128 -11 -149 -2 -9 4 -19 5 -22 2z"/>
<path d="M4025 6302 c-1 -2 -15 -5 -31 -8 -158 -27 -288 -157 -322 -319 -10
-49 -9 -308 2 -353 22 -93 127 -227 206 -264 110 -51 -46 -48 2524 -45 1310 1
2388 5 2396 8 149 50 259 161 295 298 16 63 16 312 -1 376 -25 92 -78 171
-160 235 -25 21 -112 57 -155 66 -32 7 -4747 13 -4754 6z"/>
</g>
</svg>
